<svg xmlns="http://www.w3.org/2000/svg" id="a" viewBox="0 0 1000 1000"><rect width="1000" height="1000" style="fill:#0c253f;"></rect><path d="M1000,0V423.92c-45.36,14.89-104.91,27.02-177.04,25.84-63.84-1.05-137.53-12.52-219.96-41.76-15.96-5.66-30.6-11.98-44.03-18.89C380.77,297.53,417,103.75,452.51,0H1000Z" style="fill:#398ffc;"></path><path d="M1000,308.31V1000H0v-194.22c121.98-88.98,283-76.78,283-76.78,0,0,106.29,7.38,234.79-40.87,83.02-31.16,175.31-85.55,254.21-180.13,17.96-21.53,34.94-40.87,50.96-58.24,83.0099-89.91,140.53-126.86,177.04-141.45Z" style="fill:#f9c23a;"></path><path d="M558.97,389.11c-38.14,48.19-92.29,93.56-167.97,131.89-28.51,14.44-55.97,26.82-82.38,37.35-127.34,50.84-230.2,58.95-308.62,49.62V120.99c33.18,2.92,65.18,8.2,95.02,16.44,29.41,8.12,56.71,19.12,80.98,33.57C331.8,263.79,403.94,105.89,433.58,0h187.8c23.93,83.77,48.96,248.45-62.41,389.11Z" style="fill:#c0deff;"></path><path d="M213.85,0c-41.24,65.86-87.98,106.02-87.98,106.02,0,0-12.38,10.77-30.85,31.41C69.46,166,32.24,213.46,0,277.44V0H213.85Z" style="fill:#f9c23a;"></path><path d="M903.05,1000H0V453.51c82.05,13.41,187.07,43.08,308.62,104.84,65.29,33.18,135.35,75.62,209.17,129.78,45.07,33.07,91.55,70.5,139.21,112.87,97.72,86.87,178.83,151.37,246.05,199Z" style="fill:#398ffc;"></path></svg>