<?xml version="1.0" encoding="utf-8"?>
<!-- Generator: Adobe Illustrator 26.4.1, SVG Export Plug-In . SVG Version: 6.00 Build 0)  -->
<svg version="1.1" id="andrea_gauvreau" xmlns="http://www.w3.org/2000/svg" xmlns:xlink="http://www.w3.org/1999/xlink" x="0px"
	 y="0px" viewBox="0 0 1000 300" style="enable-background:new 0 0 1000 300;" xml:space="preserve">
<g>
	<g>
		<path d="M163.94,58.3l-4.82,17.59c-7.71-10.84-20.96-21.44-41.68-21.44c-29.87,0-59.51,29.15-59.51,72.28
			c0,42.16,29.63,71.31,59.51,71.31c20.72,0,33.97-10.6,41.68-21.44l4.82,17.59h43.85V58.3H163.94z M133.83,152.26
			c-14.21,0-23.85-11.56-23.85-26.02c0-13.97,9.64-26.02,23.85-26.02c13.73,0,23.13,11.08,23.13,26.02S147.56,152.26,133.83,152.26z
			"/>
		<path d="M319.58,54.45c-18.07,0-32.04,8.91-40.23,21.68h-0.96l-5.06-17.83h-39.99v135.88h51.56V115.4
			c0-8.67,6.02-15.18,15.9-15.18c9.4,0,14.21,4.82,14.21,15.9v78.06h51.56v-91.55C366.56,72.04,349.22,54.45,319.58,54.45z"/>
		<path d="M482.93,0v75.17c-7.23-11.56-20.48-20.72-38.55-20.72c-31.32,0-59.75,28.19-59.75,71.8s29.15,71.8,60.47,71.8
			c19.76,0,33.01-10.6,40.72-21.44l4.82,17.59h43.85V0H482.93z M460.52,152.26c-14.21,0-23.85-11.56-23.85-26.02
			c0-13.97,9.64-26.02,23.85-26.02c13.73,0,23.13,11.08,23.13,26.02S474.26,152.26,460.52,152.26z"/>
		<path d="M797.82,124.08c0-35.66-18.16-58.15-43.52-66.25c-27.92,39.18-53,43.79-62.07,46.32c-10.06,2.53-18.4,1.63-28.34,1.42
			c-1.75,6.54-2.68,13.52-2.68,20.93c0,40.96,28.43,71.55,80.47,71.55c17.11,0,33.01-3.37,46.98-10.12v-39.27
			c-12.05,5.3-25.06,10.12-39.75,10.12c-16.14,0-31.08-6.02-37.58-19.03h85.29C797.34,135.16,797.82,129.86,797.82,124.08z
			 M709.4,111.31c3.61-10.84,12.05-17.59,22.17-17.59c11.08,0,17.35,8.19,17.59,17.59H709.4z M731.81,54.45
			c-30.45,0-55.26,16.99-65.5,43.64c7.89,0.27,15.03,0.54,23.4-1.57c8.61-2.38,31.62-6.63,57.79-40.48
			C742.47,54.99,737.2,54.45,731.81,54.45z"/>
		<path d="M916.84,58.3l-4.82,17.59c-7.71-10.84-20.96-21.44-41.68-21.44c-29.87,0-59.51,29.15-59.51,72.28
			c0,42.16,29.63,71.31,59.51,71.31c20.72,0,33.97-10.6,41.68-21.44l4.82,17.59h43.85V58.3H916.84z M886.72,152.26
			c-14.21,0-23.85-11.56-23.85-26.02c0-13.97,9.64-26.02,23.85-26.02c13.73,0,23.13,11.08,23.13,26.02S900.45,152.26,886.72,152.26z
			"/>
	</g>
	<polygon points="608.45,56.98 560.03,56.98 560.03,194.19 611.47,194.19 611.47,71.03 	"/>
	<path d="M779.48,0c-1.14,2.59-2.26,5.12-3.4,7.59c-9.61,20.72-19.3,36.47-28.58,48.46c-26.17,33.85-49.18,38.1-57.79,40.48
		c-8.37,2.11-15.51,1.84-23.4,1.57c-7.86-0.27-16.44-0.57-27.71,1.45c-16.47,2.95-23.37,13.55-25.9,19.03
		c-0.9,1.99-1.23,3.31-1.23,3.31l-4.82-42.07c0,0,4.64-18.31,27.13-22.35c22.53-4.04,29.57,6.87,51.11-3.01
		c21.56-9.88,8.17-22.78,8.17-22.78L779.48,0z"/>
	<g>
		<path d="M93.52,279.05c2.44,0,4.62-0.59,6.39-1.43v-17.54h16.55v28.16c-6.13,4.39-13.7,7.34-23.28,7.34
			c-18.07,0-33.61-12.73-33.61-33.06s15.71-33.14,33.61-33.14c8.4,0,12.03,2.11,17.16,5.06v17.71c-5.38-4.3-9.17-5.73-14.47-5.73
			c-11.26,0-17.82,7.51-17.82,16.53C78.06,272.14,84.53,279.05,93.52,279.05z"/>
		<path d="M221.94,287.95l-1.11-6.37h-20.76L193.12,300h-18.99l25.62-69.01H221l20.01,56.97H221.94z M215.96,266.83l-5.63-17.2
			l-5.55,17.2H215.96z"/>
		<path d="M304.95,268.34v-37.36h18.32v37.19c0,7,3.45,10.71,9.33,10.71c6.05,0,9.58-3.71,9.58-10.79v-25.06h18.4v25.31
			c0,15.85-10.59,27.24-27.98,27.24C315.29,295.58,304.95,284.2,304.95,268.34z"/>
		<path d="M467.14,293.98h-19.83l-23.78-62.99h19.08l14.62,43.68l8.18-37.66h18.99L467.14,293.98z"/>
		<path d="M554.37,230.99h22.35c15.72,0,26.64,7,26.64,21.93c0,5.9-2.6,14.5-13.02,18.89l22.33,28.2h-21.6l-17.96-25.5h-0.42v13.45
			h-18.32V230.99z M576.64,260.75c4.62,0,8.24-2.19,8.24-6.58c0-4.47-3.61-6.58-8.32-6.58h-3.87v13.16H576.64z"/>
		<path d="M671.6,230.99h49.38v16.36h-31.06v7.59h13.49v14.84h-13.49v7.84h25.04v16.36H671.6V230.99z"/>
		<path d="M828.47,300l-7.13-18.42h-20.76l-0.94,6.37h-18.99l19.59-56.97h21.26L847.55,300H828.47z M816.47,266.83l-5.63-17.2
			l-5.55,17.2H816.47z"/>
		<path d="M905.47,268.34v-22.3h18.32v22.13c0,7,3.45,10.71,9.33,10.71c6.05,0,9.58-3.71,9.58-10.79v-37.1h18.4v37.36
			c0,15.85-10.59,27.24-27.98,27.24C915.8,295.58,905.47,284.2,905.47,268.34z"/>
	</g>
</g>
</svg>
